<?xml version="1.0" encoding="UTF-8"?>
<!DOCTYPE svg PUBLIC "-//W3C//DTD SVG 1.1//EN" "http://www.w3.org/Graphics/SVG/1.1/DTD/svg11.dtd">
<svg xmlns="http://www.w3.org/2000/svg" version="1.1" width="826px" height="826px" style="shape-rendering:geometricPrecision; text-rendering:geometricPrecision; image-rendering:optimizeQuality; fill-rule:evenodd; clip-rule:evenodd" xmlns:xlink="http://www.w3.org/1999/xlink">
<g><path style="opacity:0.994" fill="#030202" d="M 385.5,-0.5 C 403.5,-0.5 421.5,-0.5 439.5,-0.5C 565.936,10.2891 667.769,65.6224 745,165.5C 792.627,230.773 819.461,303.773 825.5,384.5C 825.5,403.167 825.5,421.833 825.5,440.5C 812.669,578.395 749.002,685.562 634.5,762C 574.71,799.319 509.71,820.486 439.5,825.5C 421.5,825.5 403.5,825.5 385.5,825.5C 257.212,814.244 154.379,757.577 77,655.5C 31.2451,591.073 5.41175,519.406 -0.5,440.5C -0.5,421.833 -0.5,403.167 -0.5,384.5C 12.3311,246.605 75.9977,139.438 190.5,63C 250.257,25.6919 315.257,4.52519 385.5,-0.5 Z"/></g>
<g><path style="opacity:1" fill="#faf4f9" d="M 429.5,73.5 C 428.883,73.6107 428.383,73.944 428,74.5C 427.5,80.8246 427.334,87.1579 427.5,93.5C 416.156,105.844 404.156,117.511 391.5,128.5C 354.838,129.333 318.171,129.833 281.5,130C 255.14,155.694 228.807,181.361 202.5,207C 186.249,212.878 176.582,207.378 173.5,190.5C 173.743,187.344 174.576,184.344 176,181.5C 183.885,172.031 193.385,169.864 204.5,175C 227.139,153.362 249.472,131.362 271.5,109C 306.5,108.667 341.5,108.333 376.5,108C 386.378,99.6225 395.378,90.4559 403.5,80.5C 399.956,77.4619 396.456,74.1285 393,70.5C 384.332,53.8429 388.165,41.0095 404.5,32C 421.079,28.3727 432.246,34.5394 438,50.5C 439.193,59.7644 436.36,67.431 429.5,73.5 Z"/></g>
<g><path style="opacity:1" fill="#fbf5fa" d="M 465.5,36.5 C 541.236,46.2125 607.569,76.0459 664.5,126C 657.554,133.948 650.22,141.615 642.5,149C 610.495,149.833 578.495,149.667 546.5,148.5C 541.833,141.5 537.167,134.5 532.5,127.5C 523.518,126.335 514.518,126.168 505.5,127C 504.313,128.019 503.313,129.186 502.5,130.5C 510.767,140.32 510.434,149.82 501.5,159C 491.598,165.54 482.431,164.707 474,156.5C 471.004,151.23 469.838,145.563 470.5,139.5C 467.482,139.335 464.482,139.502 461.5,140C 455.5,146 449.5,152 443.5,158C 429.5,158.667 415.5,158.667 401.5,158C 399,156.833 397.167,155 396,152.5C 393.933,146.013 395.766,141.18 401.5,138C 413.5,137.667 425.5,137.333 437.5,137C 443.855,131.643 449.855,125.977 455.5,120C 466.182,119.832 476.849,119.332 487.5,118.5C 491.318,115.182 494.985,111.682 498.5,108C 514.5,107.333 530.5,107.333 546.5,108C 551.833,114.667 557.167,121.333 562.5,128C 578.51,128.833 594.51,128.666 610.5,127.5C 565.556,96.5428 515.889,77.5428 461.5,70.5C 461.5,59.1667 461.5,47.8333 461.5,36.5C 462.833,36.5 464.167,36.5 465.5,36.5 Z"/></g>
<g><path style="opacity:1" fill="#fbf5fb" d="M 348.5,38.5 C 349.833,38.5 351.167,38.5 352.5,38.5C 352.194,41.3854 352.527,44.0521 353.5,46.5C 364.149,55.6253 366.316,66.6253 360,79.5C 345.844,95.1054 331.344,95.4387 316.5,80.5C 267.753,94.0331 224.42,117.2 186.5,150C 136.555,192.656 100.722,245.156 79,307.5C 78.3333,309.833 78.3333,312.167 79,314.5C 86.5594,327.766 84.3928,339.266 72.5,349C 54.5177,357.757 41.6843,352.923 34,334.5C 32.2436,323.755 35.577,315.088 44,308.5C 78.0899,199.161 146.59,119.328 249.5,69C 281.21,54.4845 314.21,44.3179 348.5,38.5 Z"/></g>
<g><path style="opacity:1" fill="#5c595a" d="M 348.5,38.5 C 349.919,37.5489 351.585,37.2155 353.5,37.5C 353.5,40.5 353.5,43.5 353.5,46.5C 352.527,44.0521 352.194,41.3854 352.5,38.5C 351.167,38.5 349.833,38.5 348.5,38.5 Z"/></g>
<g><path style="opacity:1" fill="#757273" d="M 465.5,36.5 C 464.167,36.5 462.833,36.5 461.5,36.5C 461.5,47.8333 461.5,59.1667 461.5,70.5C 460.505,59.012 460.172,47.3453 460.5,35.5C 462.415,35.2155 464.081,35.5489 465.5,36.5 Z"/></g>
<g><path style="opacity:1" fill="#434044" d="M 429.5,73.5 C 428.906,80.2991 428.239,86.9657 427.5,93.5C 427.334,87.1579 427.5,80.8246 428,74.5C 428.383,73.944 428.883,73.6107 429.5,73.5 Z"/></g>
<g><path style="opacity:1" fill="#f9f4f8" d="M 465.5,84.5 C 478.673,83.5046 484.506,89.5046 483,102.5C 479.152,111.062 472.652,113.895 463.5,111C 452.346,101.25 453.013,92.4164 465.5,84.5 Z"/></g>
<g><path style="opacity:1" fill="#fdf6fb" d="M 543.5,169.5 C 583.294,168.845 622.961,168.178 662.5,167.5C 667.989,150.919 679.323,145.085 696.5,150C 711.389,158.989 714.555,171.155 706,186.5C 675.927,212.902 646.761,240.402 618.5,269C 614.868,271.63 611.535,274.63 608.5,278C 601.842,283.027 595.676,282.527 590,276.5C 588.595,272.928 588.262,269.261 589,265.5C 600.137,253.362 611.637,241.529 623.5,230C 614.5,229.333 605.5,229.333 596.5,230C 590.017,235.649 583.683,241.483 577.5,247.5C 579.5,250.167 581.833,252.5 584.5,254.5C 564.066,275.766 543.066,296.6 521.5,317C 550.833,317.667 580.167,317.667 609.5,317C 649.095,276.736 689.262,237.236 730,198.5C 734.965,203.135 739.631,208.135 744,213.5C 744.982,214.759 745.315,216.092 745,217.5C 715.5,246.333 686,275.167 656.5,304C 669.833,304.667 683.167,304.667 696.5,304C 706.109,294.054 715.943,284.554 726,275.5C 727.074,256.088 737.24,246.921 756.5,248C 765.404,249.904 771.571,255.071 775,263.5C 778.3,278.069 773.133,288.569 759.5,295C 756.402,295.918 753.235,296.418 750,296.5C 744.828,296.096 739.995,294.93 735.5,293C 725.137,303.697 714.471,314.03 703.5,324C 682.167,324.333 660.833,324.667 639.5,325C 634.691,329.899 629.691,334.565 624.5,339C 578.5,339.667 532.5,339.667 486.5,339C 480.092,335.677 477.925,330.511 480,323.5C 481.251,320.619 483.417,318.786 486.5,318C 494.5,317.667 502.5,317.333 510.5,317C 472.975,281.833 428.975,269.833 378.5,281C 331.921,294.916 299.254,324.25 280.5,369C 264.342,417.235 269.509,463.069 296,506.5C 336.657,560.499 389.824,578.665 455.5,561C 462.263,558.581 468.93,556.081 475.5,553.5C 477.482,540.208 478.149,526.541 477.5,512.5C 445.833,512.5 414.167,512.5 382.5,512.5C 365.618,497.121 349.118,481.121 333,464.5C 332.831,457.476 332.331,450.476 331.5,443.5C 315.717,434.038 311.884,421.038 320,404.5C 330.309,392.399 342.475,390.232 356.5,398C 369.973,410.231 370.973,423.398 359.5,437.5C 358.335,444.811 358.169,452.144 359,459.5C 370.167,470 381.333,480.5 392.5,491C 428.832,491.5 465.165,491.667 501.5,491.5C 501.333,506.17 501.5,520.837 502,535.5C 525.288,513.515 538.788,486.515 542.5,454.5C 505.171,453.667 467.838,453.167 430.5,453C 418.716,449.661 411.883,441.827 410,429.5C 409.333,419.167 409.333,408.833 410,398.5C 411.924,387.935 417.09,379.435 425.5,373C 427.5,372.333 429.5,371.667 431.5,371C 495.5,370.333 559.5,370.333 623.5,371C 630.635,375.15 635.135,381.317 637,389.5C 646.67,440.134 641.337,489.134 621,536.5C 616.832,546.145 611.666,555.145 605.5,563.5C 609.167,564.833 612.833,564.833 616.5,563.5C 632.765,546.734 649.265,530.068 666,513.5C 666.5,476.835 666.667,440.168 666.5,403.5C 695.5,403.5 724.5,403.5 753.5,403.5C 755.197,394.634 760.53,389.134 769.5,387C 790.036,385.538 800.202,395.038 800,415.5C 796.522,428.497 788.022,435.164 774.5,435.5C 765.862,435.017 759.195,431.183 754.5,424C 733.169,423.5 711.836,423.333 690.5,423.5C 690.833,456.84 690.5,490.173 689.5,523.5C 667.71,543.789 646.376,564.623 625.5,586C 613.167,586.333 600.833,586.667 588.5,587C 544.815,634.839 490.481,660.673 425.5,664.5C 422.5,664.5 419.5,664.5 416.5,664.5C 416.5,693.167 416.5,721.833 416.5,750.5C 414.265,751.228 412.432,752.561 411,754.5C 411.088,773.417 401.921,780.917 383.5,777C 370.933,767.197 370.266,756.53 381.5,745C 385.089,742.369 389.089,741.203 393.5,741.5C 393.5,715.833 393.5,690.167 393.5,664.5C 384.079,663.676 374.746,662.343 365.5,660.5C 362.858,659.194 360.025,658.194 357,657.5C 357.488,699.087 357.655,740.753 357.5,782.5C 356.5,782.5 355.5,782.5 354.5,782.5C 326.449,777.071 299.449,768.405 273.5,756.5C 272.667,733.174 272.167,709.84 272,686.5C 264.221,694.279 256.387,702.113 248.5,710C 254.579,719.804 253.579,728.804 245.5,737C 232.709,744.73 222.542,742.23 215,729.5C 211.678,716.975 215.844,707.808 227.5,702C 249,679.833 270.5,657.667 292,635.5C 292.688,634.668 292.521,634.002 291.5,633.5C 288.1,631.144 284.767,628.811 281.5,626.5C 259.34,625.503 237.006,625.169 214.5,625.5C 214.5,627.833 214.5,630.167 214.5,632.5C 214.97,648.596 214.47,664.596 213,680.5C 211.437,683.728 208.937,685.895 205.5,687C 201.5,687.833 197.5,688.667 193.5,689.5C 182.715,702.828 170.048,704.994 155.5,696C 147.585,687.869 145.419,678.369 149,667.5C 157.383,653.111 169.216,649.278 184.5,656C 187.255,657.711 189.589,659.878 191.5,662.5C 192.499,650.518 192.832,638.518 192.5,626.5C 178.163,626.333 163.829,626.5 149.5,627C 140.473,634.694 132.14,643.027 124.5,652C 123.833,652.667 123.167,652.667 122.5,652C 92.7379,620.3 70.2379,584.134 55,543.5C 76.7004,521.995 98.367,500.661 120,479.5C 120.464,478.906 120.631,478.239 120.5,477.5C 121.496,464.344 121.829,451.01 121.5,437.5C 91.1667,437.5 60.8333,437.5 30.5,437.5C 30.5,430.833 30.5,424.167 30.5,417.5C 60.5,417.5 90.5,417.5 120.5,417.5C 121.493,409.016 121.826,400.349 121.5,391.5C 91.1667,391.5 60.8333,391.5 30.5,391.5C 30.5,384.5 30.5,377.5 30.5,370.5C 60.5,370.5 90.5,370.5 120.5,370.5C 120.832,358.149 120.499,345.815 119.5,333.5C 113.024,327.561 110.857,320.228 113,311.5C 116.137,302.849 122.303,298.516 131.5,298.5C 148.771,300.278 155.271,309.611 151,326.5C 149.093,330.41 146.427,333.744 143,336.5C 142.5,347.828 142.333,359.162 142.5,370.5C 153.748,370.821 164.915,370.487 176,369.5C 183.401,333.536 198.235,301.036 220.5,272C 211.954,263.454 203.287,254.787 194.5,246C 186.939,244.402 179.272,244.069 171.5,245C 159.5,255.667 148.167,267 137.5,279C 123.479,288.33 112.313,285.83 104,271.5C 101.28,261.755 104.113,253.921 112.5,248C 115.611,246.278 118.944,245.445 122.5,245.5C 127.588,246.592 132.588,247.758 137.5,249C 145.5,241 153.5,233 161.5,225C 176.167,224.333 190.833,224.333 205.5,225C 215.985,234.651 226.318,244.484 236.5,254.5C 271.117,219.104 312.784,196.271 361.5,186C 362.478,179.59 362.811,173.09 362.5,166.5C 342.831,166.333 323.164,166.5 303.5,167C 289.167,180.667 274.833,194.333 260.5,208C 254.347,214.083 247.013,216.75 238.5,216C 226.919,208.936 225.586,200.27 234.5,190C 235.833,189.333 237.167,188.667 238.5,188C 243.167,187.667 247.833,187.333 252.5,187C 265.862,173.304 279.529,159.971 293.5,147C 325.498,146.5 357.498,146.333 389.5,146.5C 389.5,157.833 389.5,169.167 389.5,180.5C 431.637,177.245 471.97,184.245 510.5,201.5C 521.547,190.785 532.547,180.118 543.5,169.5 Z"/></g>
<g><path style="opacity:1" fill="#b4afb2" d="M 662.5,167.5 C 622.961,168.178 583.294,168.845 543.5,169.5C 543.611,168.883 543.944,168.383 544.5,168C 583.832,167.5 623.165,167.333 662.5,167.5 Z"/></g>
<g><path style="opacity:1" fill="#060405" d="M 554.5,188.5 C 591.502,188.333 628.502,188.5 665.5,189C 658.5,196 651.5,203 644.5,210C 624.167,210.333 603.833,210.667 583.5,211C 575.988,217.846 568.488,224.68 561,231.5C 551.453,224.292 541.62,217.458 531.5,211C 539.618,204.05 547.284,196.55 554.5,188.5 Z"/></g>
<g><path style="opacity:1" fill="#eeebec" d="M 147.5,204.5 C 152.703,203.189 156.036,205.022 157.5,210C 154.686,216.095 150.853,216.929 146,212.5C 145.109,209.502 145.609,206.836 147.5,204.5 Z"/></g>
<g><path style="opacity:1" fill="#f9f3f8" d="M 169.5,261.5 C 182.217,261.046 187.717,267.046 186,279.5C 182.539,286.148 177.039,288.981 169.5,288C 161.695,284.219 158.862,278.053 161,269.5C 163.074,265.923 165.907,263.256 169.5,261.5 Z"/></g>
<g><path style="opacity:1" fill="#fbf5fa" d="M 768.5,318.5 C 787.503,318.337 797.003,327.671 797,346.5C 794.094,360.236 785.594,367.236 771.5,367.5C 765.713,367.738 760.713,365.905 756.5,362C 736.169,361.5 715.836,361.333 695.5,361.5C 697.058,377.726 689.725,386.393 673.5,387.5C 657.764,385.406 651.264,376.406 654,360.5C 657.49,350.993 664.323,345.659 674.5,344.5C 677.812,345.379 681.145,345.546 684.5,345C 685.167,344 685.833,343 686.5,342C 707.497,341.5 728.497,341.333 749.5,341.5C 749.923,333.153 753.59,326.653 760.5,322C 763.374,321.058 766.04,319.891 768.5,318.5 Z"/></g>
<g><path style="opacity:1" fill="#776c71" d="M 30.5,391.5 C 60.8333,391.5 91.1667,391.5 121.5,391.5C 121.826,400.349 121.493,409.016 120.5,417.5C 120.5,409.167 120.5,400.833 120.5,392.5C 90.3287,392.831 60.3287,392.498 30.5,391.5 Z"/></g>
<g><path style="opacity:1" fill="#040303" d="M 172.5,392.5 C 168.997,427.47 172.164,461.803 182,495.5C 184.793,503.75 188.127,511.75 192,519.5C 192.5,547.498 192.667,575.498 192.5,603.5C 170.497,603.667 148.497,603.5 126.5,603C 111.83,584.011 99.1635,563.677 88.5,542C 106.952,524.715 124.952,506.881 142.5,488.5C 143.498,456.671 143.832,424.671 143.5,392.5C 153.167,392.5 162.833,392.5 172.5,392.5 Z"/></g>
<g><path style="opacity:1" fill="#797377" d="M 172.5,392.5 C 162.833,392.5 153.167,392.5 143.5,392.5C 143.832,424.671 143.498,456.671 142.5,488.5C 142.5,456.167 142.5,423.833 142.5,391.5C 152.681,391.173 162.681,391.506 172.5,392.5 Z"/></g>
<g><path style="opacity:1" fill="#f1ecf0" d="M 703.5,451.5 C 710.56,450.725 713.06,453.725 711,460.5C 707.303,464.582 703.97,464.249 701,459.5C 700.018,456.225 700.851,453.559 703.5,451.5 Z"/></g>
<g><path style="opacity:1" fill="#fbf5fa" d="M 434.5,786.5 C 432.833,786.5 431.167,786.5 429.5,786.5C 429.5,775.5 429.5,764.5 429.5,753.5C 431.735,753.795 433.735,753.461 435.5,752.5C 562.646,740.215 658.813,679.548 724,570.5C 730.494,558.859 735.828,546.859 740,534.5C 704.639,570.195 668.972,605.528 633,640.5C 637.542,656.428 631.709,665.761 615.5,668.5C 602.12,665.959 596.287,657.959 598,644.5C 585.167,657.333 572.333,670.167 559.5,683C 545.833,683.333 532.167,683.667 518.5,684C 513.333,689.167 508.167,694.333 503,699.5C 505.101,715.795 498.267,726.295 482.5,731C 464.934,732.214 455.268,724.047 453.5,706.5C 453.955,699.091 456.955,692.924 462.5,688C 464.956,686.289 467.623,684.956 470.5,684C 477.189,683.622 483.856,683.622 490.5,684C 497.167,677.333 503.833,670.667 510.5,664C 524.167,663.667 537.833,663.333 551.5,663C 564.554,649.946 577.554,636.946 590.5,624C 600.167,623.667 609.833,623.333 619.5,623C 665.751,577.417 711.251,531.25 756,484.5C 758.323,473.914 760.156,463.247 761.5,452.5C 773.167,452.5 784.833,452.5 796.5,452.5C 786.493,533.501 753.659,603.501 698,662.5C 626.329,737.243 538.496,778.576 434.5,786.5 Z"/></g>
<g><path style="opacity:1" fill="#f9f3f8" d="M 731.5,451.5 C 743.329,451.828 749.163,457.828 749,469.5C 745.04,478.398 738.207,481.898 728.5,480C 720.25,474.151 718.417,466.651 723,457.5C 725.322,454.605 728.155,452.605 731.5,451.5 Z"/></g>
<g><path style="opacity:1" fill="#fbf5fa" d="M 52.5,452.5 C 66.4806,451.566 75.9806,457.566 81,470.5C 83.1986,486.277 76.6986,496.443 61.5,501C 40.3766,501.199 31.2099,490.699 34,469.5C 37.8329,461.162 43.9996,455.495 52.5,452.5 Z"/></g>
<g><path style="opacity:1" fill="#736f70" d="M 30.5,437.5 C 60.8333,437.5 91.1667,437.5 121.5,437.5C 121.829,451.01 121.496,464.344 120.5,477.5C 120.5,464.5 120.5,451.5 120.5,438.5C 90.3287,438.831 60.3287,438.498 30.5,437.5 Z"/></g>
<g><path style="opacity:1" fill="#f8f2f6" d="M 143.5,508.5 C 155.723,507.887 161.223,513.553 160,525.5C 156.485,532.903 150.652,535.737 142.5,534C 134.257,528.907 132.424,522.074 137,513.5C 138.965,511.45 141.132,509.783 143.5,508.5 Z"/></g>
<g><path style="opacity:1" fill="#fbf5fa" d="M 137.5,535.5 C 158.426,534.92 167.592,544.92 165,565.5C 160.636,575.11 153.136,580.444 142.5,581.5C 125.462,578.622 118.295,568.622 121,551.5C 122.54,547.581 124.707,544.081 127.5,541C 130.767,538.87 134.1,537.037 137.5,535.5 Z"/></g>
<g><path style="opacity:1" fill="#958f90" d="M 382.5,512.5 C 414.167,512.5 445.833,512.5 477.5,512.5C 478.149,526.541 477.482,540.208 475.5,553.5C 476.481,540.246 476.814,526.913 476.5,513.5C 444.996,513.832 413.662,513.498 382.5,512.5 Z"/></g>
<g><path style="opacity:1" fill="#7e7a79" d="M 216.5,563.5 C 215.167,565.833 215.167,568.167 216.5,570.5C 216.44,571.043 216.107,571.376 215.5,571.5C 214.343,568.216 214.176,564.882 215,561.5C 215.717,562.044 216.217,562.711 216.5,563.5 Z"/></g>
<g><path style="opacity:1" fill="#171515" d="M 216.5,563.5 C 218.922,565.94 218.922,568.274 216.5,570.5C 215.167,568.167 215.167,565.833 216.5,563.5 Z"/></g>
<g><path style="opacity:1" fill="#0e0d0e" d="M 248.5,601.5 C 248.611,602.117 248.944,602.617 249.5,603C 239.991,603.824 230.657,603.658 221.5,602.5C 225.843,597.324 230.676,592.657 236,588.5C 240.33,592.664 244.497,596.997 248.5,601.5 Z"/></g>
<g><path style="opacity:1" fill="#837e83" d="M 248.5,601.5 C 250.048,601.821 250.715,602.821 250.5,604.5C 240.478,604.832 230.478,604.499 220.5,603.5C 220.624,602.893 220.957,602.56 221.5,602.5C 230.657,603.658 239.991,603.824 249.5,603C 248.944,602.617 248.611,602.117 248.5,601.5 Z"/></g>
<g><path style="opacity:1" fill="#9f9b9c" d="M 281.5,626.5 C 259.5,626.5 237.5,626.5 215.5,626.5C 215.795,628.735 215.461,630.735 214.5,632.5C 214.5,630.167 214.5,627.833 214.5,625.5C 237.006,625.169 259.34,625.503 281.5,626.5 Z"/></g>
<g><path style="opacity:1" fill="#070606" d="M 314.5,645.5 C 321.069,648.141 327.735,650.475 334.5,652.5C 334.5,682.833 334.5,713.167 334.5,743.5C 320.686,738.95 307.52,732.95 295,725.5C 294.333,705.5 294.333,685.5 295,665.5C 301.367,658.634 307.867,651.967 314.5,645.5 Z"/></g>
<g><path style="opacity:1" fill="#f4eef2" d="M 227.5,653.5 C 235.863,652.949 239.03,656.615 237,664.5C 232.749,669.726 228.415,669.726 224,664.5C 222.518,659.774 223.685,656.107 227.5,653.5 Z"/></g>
<g><path style="opacity:1" fill="#2c292b" d="M 425.5,664.5 C 423.052,665.473 420.385,665.806 417.5,665.5C 417.831,694.005 417.498,722.338 416.5,750.5C 416.5,721.833 416.5,693.167 416.5,664.5C 419.5,664.5 422.5,664.5 425.5,664.5 Z"/></g>
<g><path style="opacity:1" fill="#f6f0f5" d="M 572.5,681.5 C 579.272,680.636 584.105,683.303 587,689.5C 587.5,699.667 582.667,704.5 572.5,704C 565.438,700.489 563.272,694.989 566,687.5C 567.494,684.686 569.66,682.686 572.5,681.5 Z"/></g>
<g><path style="opacity:1" fill="#f8f3f7" d="M 539.5,691.5 C 553.273,692.065 557.773,698.731 553,711.5C 547.972,716.579 542.139,717.745 535.5,715C 527.755,705.417 529.088,697.583 539.5,691.5 Z"/></g>
<g><path style="opacity:1" fill="#e4dce2" d="M 365.5,660.5 C 363.139,660.326 360.806,659.993 358.5,659.5C 358.5,700.833 358.5,742.167 358.5,783.5C 356.901,783.768 355.568,783.434 354.5,782.5C 355.5,782.5 356.5,782.5 357.5,782.5C 357.655,740.753 357.488,699.087 357,657.5C 360.025,658.194 362.858,659.194 365.5,660.5 Z"/></g>
<g><path style="opacity:1" fill="#8b8a8a" d="M 435.5,752.5 C 433.735,753.461 431.735,753.795 429.5,753.5C 429.5,764.5 429.5,775.5 429.5,786.5C 431.167,786.5 432.833,786.5 434.5,786.5C 432.735,787.461 430.735,787.795 428.5,787.5C 428.5,775.833 428.5,764.167 428.5,752.5C 430.833,752.5 433.167,752.5 435.5,752.5 Z"/></g>
</svg>
