<?xml version="1.0" encoding="UTF-8"?>
<!DOCTYPE svg PUBLIC "-//W3C//DTD SVG 1.1//EN" "http://www.w3.org/Graphics/SVG/1.1/DTD/svg11.dtd">
<svg xmlns="http://www.w3.org/2000/svg" version="1.1" width="841px" height="841px" style="shape-rendering:geometricPrecision; text-rendering:geometricPrecision; image-rendering:optimizeQuality; fill-rule:evenodd; clip-rule:evenodd" xmlns:xlink="http://www.w3.org/1999/xlink">
<g><path style="opacity:0.994" fill="#fbfcfc" d="M 391.5,-0.5 C 410.5,-0.5 429.5,-0.5 448.5,-0.5C 593.594,12.9242 704.761,80.9242 782,203.5C 816.124,261.7 835.624,324.366 840.5,391.5C 840.5,410.5 840.5,429.5 840.5,448.5C 829.34,577.021 773.007,680.521 671.5,759C 604.8,806.847 530.466,834.013 448.5,840.5C 429.5,840.5 410.5,840.5 391.5,840.5C 246.405,827.075 135.238,759.075 58,636.5C 24.0864,578.597 4.58642,516.264 -0.5,449.5C -0.5,430.167 -0.5,410.833 -0.5,391.5C 12.9268,246.399 80.9268,135.233 203.5,58C 261.706,23.874 324.373,4.37405 391.5,-0.5 Z"/></g>
<g><path style="opacity:1" fill="#050b06" d="M 419.5,38.5 C 434.098,37.9354 443.598,44.6021 448,58.5C 449.059,68.3767 445.725,76.3767 438,82.5C 437.926,89.6062 437.26,96.6062 436,103.5C 424.322,114.345 412.822,125.345 401.5,136.5C 364.505,137.333 327.505,137.833 290.5,138C 265.5,163 240.5,188 215.5,213C 200.907,221.469 190.407,217.969 184,202.5C 183.515,189.316 189.849,181.982 203,180.5C 207.11,180.824 210.943,181.657 214.5,183C 237.139,161.362 259.472,139.362 281.5,117C 316.5,116.667 351.5,116.333 386.5,116C 396.378,107.623 405.378,98.4559 413.5,88.5C 413.392,87.5581 413.059,86.7247 412.5,86C 401.497,79.6869 396.997,70.1869 399,57.5C 402.222,47.1061 409.055,40.7728 419.5,38.5 Z"/></g>
<g><path style="opacity:1" fill="#040a05" d="M 473.5,44.5 C 543.972,53.2524 606.972,79.4191 662.5,123C 666.981,126.314 670.981,130.148 674.5,134.5C 667.375,142.126 660.042,149.626 652.5,157C 620.495,157.833 588.495,157.667 556.5,156.5C 551.833,149.5 547.167,142.5 542.5,135.5C 533.518,134.335 524.518,134.168 515.5,135C 514.313,136.019 513.313,137.186 512.5,138.5C 520.402,147.733 520.402,156.899 512.5,166C 498.723,174.96 488.223,172.126 481,157.5C 480.502,154.183 480.335,150.85 480.5,147.5C 477.102,147.18 473.768,147.513 470.5,148.5C 465.015,154.485 459.348,160.319 453.5,166C 439.5,166.667 425.5,166.667 411.5,166C 409.376,164.878 407.543,163.378 406,161.5C 405.146,157.375 405.48,153.375 407,149.5C 408.214,147.951 409.714,146.785 411.5,146C 423.5,145.667 435.5,145.333 447.5,145C 453.802,139.699 459.802,134.032 465.5,128C 476.167,127.667 486.833,127.333 497.5,127C 501.167,123.333 504.833,119.667 508.5,116C 524.5,115.333 540.5,115.333 556.5,116C 561.644,122.645 566.978,129.145 572.5,135.5C 588.5,136.833 604.5,136.833 620.5,135.5C 575.525,104.495 525.859,85.4952 471.5,78.5C 470.856,66.784 471.522,55.4507 473.5,44.5 Z"/></g>
<g><path style="opacity:1" fill="#030903" d="M 361.5,45.5 C 362.497,45.4701 363.164,45.9701 363.5,47C 362.507,49.4528 362.34,51.9528 363,54.5C 373.606,62.6684 376.272,73.0017 371,85.5C 361.191,99.4105 348.691,102.577 333.5,95C 331.284,92.4465 328.784,90.2799 326,88.5C 254.311,109.989 194.977,149.655 148,207.5C 121.208,241.239 101.041,278.739 87.5,320C 93.5256,329.866 94.0256,340.033 89,350.5C 76.2568,364.327 62.9234,364.994 49,352.5C 40.4167,338.969 42.0833,326.969 54,316.5C 83.8889,220.308 141.722,146.141 227.5,94C 269.299,69.7903 313.966,53.6236 361.5,45.5 Z"/></g>
<g><path style="opacity:1" fill="#858886" d="M 473.5,44.5 C 471.522,55.4507 470.856,66.784 471.5,78.5C 470.505,67.012 470.172,55.3453 470.5,43.5C 471.791,43.2627 472.791,43.596 473.5,44.5 Z"/></g>
<g><path style="opacity:1" fill="#060a06" d="M 475.5,92.5 C 490.832,92.9672 495.998,100.301 491,114.5C 486.078,119.202 480.245,120.702 473.5,119C 462.273,109.213 462.939,100.38 475.5,92.5 Z"/></g>
<g><path style="opacity:1" fill="#020802" d="M 486.5,560.5 C 487.496,547.344 487.829,534.01 487.5,520.5C 455.833,520.5 424.167,520.5 392.5,520.5C 375.591,505.094 359.091,489.094 343,472.5C 342.831,465.476 342.331,458.476 341.5,451.5C 326.323,441.786 322.49,428.786 330,412.5C 338.611,401.319 349.445,398.486 362.5,404C 376.075,411.651 380.242,422.818 375,437.5C 373.487,440.524 371.487,443.191 369,445.5C 368.333,452.833 368.333,460.167 369,467.5C 380.167,478 391.333,488.5 402.5,499C 438.832,499.5 475.165,499.667 511.5,499.5C 511.167,513.849 511.501,528.182 512.5,542.5C 513.107,542.376 513.44,542.043 513.5,541.5C 536.61,519.944 549.61,493.277 552.5,461.5C 514.832,461.667 477.165,461.5 439.5,461C 429.594,458.093 423.427,451.593 421,441.5C 418.758,427.429 419.091,413.429 422,399.5C 425.051,390.793 430.551,384.293 438.5,380C 503.833,379.333 569.167,379.333 634.5,380C 640.969,384.075 645.136,389.909 647,397.5C 657.14,449.774 651.14,500.107 629,548.5C 625.004,556.496 620.504,564.162 615.5,571.5C 619.122,572.659 622.789,572.825 626.5,572C 642.638,554.862 659.138,538.028 676,521.5C 676.5,484.835 676.667,448.168 676.5,411.5C 705.5,411.5 734.5,411.5 763.5,411.5C 768.883,396.808 779.217,391.641 794.5,396C 807.534,402.235 812.367,412.402 809,426.5C 802.69,440.839 791.857,446.005 776.5,442C 771.916,439.42 767.916,436.087 764.5,432C 743.169,431.5 721.836,431.333 700.5,431.5C 700.833,464.84 700.5,498.173 699.5,531.5C 677.71,551.789 656.376,572.623 635.5,594C 622.82,594.167 610.154,594.667 597.5,595.5C 554.461,642.848 500.795,668.515 436.5,672.5C 433.167,672.5 429.833,672.5 426.5,672.5C 426.825,701.574 426.491,730.574 425.5,759.5C 423.629,759.859 422.129,760.859 421,762.5C 421.117,781.385 411.951,788.885 393.5,785C 381.172,775.047 380.505,764.381 391.5,753C 395.089,750.369 399.089,749.203 403.5,749.5C 403.5,723.833 403.5,698.167 403.5,672.5C 391.762,671.299 380.096,669.633 368.5,667.5C 368.5,708.833 368.5,750.167 368.5,791.5C 339.077,785.915 310.744,776.915 283.5,764.5C 282.667,741.174 282.167,717.84 282,694.5C 274.387,702.113 266.721,709.779 259,717.5C 261.026,721.438 262.192,725.771 262.5,730.5C 260.964,742.378 254.131,748.712 242,749.5C 227.932,747.046 221.932,738.712 224,724.5C 226.777,718.057 231.277,713.223 237.5,710C 259,687.833 280.5,665.667 302,643.5C 302.688,642.668 302.521,642.002 301.5,641.5C 298.36,639.527 295.36,637.36 292.5,635C 291.552,634.517 290.552,634.351 289.5,634.5C 268.006,633.503 246.34,633.169 224.5,633.5C 224.5,635.167 224.5,636.833 224.5,638.5C 224.971,655.262 224.471,671.928 223,688.5C 218.005,694.4 211.505,697.234 203.5,697C 196.529,707.314 186.862,711.314 174.5,709C 159.14,701.606 154.306,689.772 160,673.5C 167.61,661.64 178.11,658.14 191.5,663C 195.904,664.777 199.404,667.61 202,671.5C 202.5,659.171 202.667,646.838 202.5,634.5C 188.163,634.333 173.829,634.5 159.5,635C 150.349,642.984 141.683,651.484 133.5,660.5C 114.477,640.975 98.3101,619.308 85,595.5C 79.7145,585.928 74.7145,576.261 70,566.5C 67.4202,561.704 65.7535,556.704 65,551.5C 86.8645,530.638 108.531,509.304 130,487.5C 130.49,486.207 130.657,484.873 130.5,483.5C 131.495,471.011 131.829,458.344 131.5,445.5C 101.167,445.5 70.8333,445.5 40.5,445.5C 40.5,438.833 40.5,432.167 40.5,425.5C 70.5,425.5 100.5,425.5 130.5,425.5C 131.493,417.016 131.826,408.349 131.5,399.5C 101.167,399.5 70.8333,399.5 40.5,399.5C 40.5,392.5 40.5,385.5 40.5,378.5C 70.8333,378.5 101.167,378.5 131.5,378.5C 131.667,366.495 131.5,354.495 131,342.5C 127.607,340.773 125.274,338.106 124,334.5C 120.723,311.119 130.556,302.619 153.5,309C 163.152,317.302 164.985,327.135 159,338.5C 157.316,340.351 155.483,342.018 153.5,343.5C 152.501,355.148 152.168,366.814 152.5,378.5C 163.748,378.821 174.915,378.487 186,377.5C 193.439,341.466 208.273,308.966 230.5,280C 222.233,270.4 213.233,261.4 203.5,253C 196.167,252.333 188.833,252.333 181.5,253C 168.809,264.692 156.476,276.692 144.5,289C 130.514,296.006 120.348,292.506 114,278.5C 111.918,264.08 118.085,255.746 132.5,253.5C 137.588,254.592 142.588,255.758 147.5,257C 155.5,249 163.5,241 171.5,233C 185.833,232.333 200.167,232.333 214.5,233C 225.617,242.281 236.284,252.115 246.5,262.5C 281.117,227.104 322.784,204.271 371.5,194C 372.478,187.59 372.811,181.09 372.5,174.5C 352.831,174.333 333.164,174.5 313.5,175C 297.802,190.366 281.802,205.366 265.5,220C 257.939,225.431 250.439,225.598 243,220.5C 237.96,212.609 238.46,205.109 244.5,198C 245.672,197.581 246.672,196.915 247.5,196C 252.5,195.667 257.5,195.333 262.5,195C 275.862,181.304 289.529,167.971 303.5,155C 335.498,154.5 367.498,154.333 399.5,154.5C 399.5,165.833 399.5,177.167 399.5,188.5C 441.634,185.244 481.968,192.244 520.5,209.5C 531.913,198.418 543.247,187.418 554.5,176.5C 594.161,175.5 633.828,175.167 673.5,175.5C 676.003,163.003 683.669,156.67 696.5,156.5C 713.58,158.08 721.413,167.413 720,184.5C 718.105,193.396 712.938,199.563 704.5,203C 676.164,231.003 647.497,258.67 618.5,286C 610.209,291.707 603.709,290.207 599,281.5C 598.088,277.548 598.755,273.881 601,270.5C 611.681,259.652 622.514,248.986 633.5,238.5C 624.518,237.335 615.518,237.168 606.5,238C 599.991,243.677 593.657,249.511 587.5,255.5C 589.5,258.167 591.833,260.5 594.5,262.5C 574.066,283.766 553.066,304.6 531.5,325C 560.833,325.667 590.167,325.667 619.5,325C 659.256,284.573 699.423,245.073 740,206.5C 744.678,210.845 749.011,215.511 753,220.5C 754.289,222.055 754.956,223.721 755,225.5C 725.193,254.639 695.36,283.806 665.5,313C 679.179,313.833 692.846,313.666 706.5,312.5C 715.916,302.516 725.75,292.849 736,283.5C 737.557,262.322 748.724,253.489 769.5,257C 782.015,261.868 787.515,271.035 786,284.5C 782.031,296.971 773.531,303.638 760.5,304.5C 755.28,303.777 750.28,302.61 745.5,301C 735.164,311.669 724.497,322.003 713.5,332C 691.826,332.167 670.159,332.667 648.5,333.5C 643.675,338.157 638.675,342.657 633.5,347C 587.833,347.667 542.167,347.667 496.5,347C 488.87,342.011 487.537,335.677 492.5,328C 493.833,327.333 495.167,326.667 496.5,326C 504.5,325.667 512.5,325.333 520.5,325C 490.204,295.675 453.871,282.341 411.5,285C 350.601,293.188 309.434,326.021 288,383.5C 275.953,425.421 279.953,465.754 300,504.5C 331.291,555.898 377.124,579.398 437.5,575C 454.742,572.778 471.076,567.945 486.5,560.5 Z"/></g>
<g><path style="opacity:1" fill="#f9fafa" d="M 564.5,196.5 C 601.502,196.333 638.502,196.5 675.5,197C 668.5,204 661.5,211 654.5,218C 634.167,218.333 613.833,218.667 593.5,219C 585.988,225.846 578.488,232.68 571,239.5C 561.453,232.292 551.62,225.458 541.5,219C 549.618,212.05 557.284,204.55 564.5,196.5 Z"/></g>
<g><path style="opacity:1" fill="#101211" d="M 157.5,212.5 C 166.058,211.528 168.391,214.694 164.5,222C 161.281,224.045 158.448,223.545 156,220.5C 155.109,217.502 155.609,214.836 157.5,212.5 Z"/></g>
<g><path style="opacity:1" fill="#090d09" d="M 179.5,269.5 C 193.615,269.433 198.782,276.1 195,289.5C 188.358,297.878 181.024,298.544 173,291.5C 167.975,281.852 170.141,274.519 179.5,269.5 Z"/></g>
<g><path style="opacity:1" fill="#030803" d="M 775.5,327.5 C 795.924,325.258 806.424,334.258 807,354.5C 801.886,371.98 790.386,378.48 772.5,374C 770.5,372.667 768.5,371.333 766.5,370C 746.169,369.5 725.836,369.333 705.5,369.5C 707.049,385.755 699.716,394.421 683.5,395.5C 668.146,393.63 661.646,384.963 664,369.5C 669.399,355.546 679.565,350.046 694.5,353C 695.167,352 695.833,351 696.5,350C 717.497,349.5 738.497,349.333 759.5,349.5C 760.567,339.095 765.9,331.762 775.5,327.5 Z"/></g>
<g><path style="opacity:1" fill="#8b938e" d="M 40.5,399.5 C 70.8333,399.5 101.167,399.5 131.5,399.5C 131.826,408.349 131.493,417.016 130.5,425.5C 130.5,417.167 130.5,408.833 130.5,400.5C 100.329,400.831 70.3287,400.498 40.5,399.5 Z"/></g>
<g><path style="opacity:1" fill="#fafcfb" d="M 182.5,401.5 C 181.489,419.155 181.322,436.822 182,454.5C 184.778,479.949 191.444,504.282 202,527.5C 202.5,555.498 202.667,583.498 202.5,611.5C 180.497,611.667 158.497,611.5 136.5,611C 121.329,592.347 108.663,572.013 98.5,550C 116.979,532.687 134.979,514.854 152.5,496.5C 153.498,464.671 153.832,432.671 153.5,400.5C 163.348,400.173 173.014,400.506 182.5,401.5 Z"/></g>
<g><path style="opacity:1" fill="#858a87" d="M 182.5,401.5 C 173.014,400.506 163.348,400.173 153.5,400.5C 153.832,432.671 153.498,464.671 152.5,496.5C 152.5,464.167 152.5,431.833 152.5,399.5C 162.855,399.168 173.188,399.501 183.5,400.5C 183.376,401.107 183.043,401.44 182.5,401.5 Z"/></g>
<g><path style="opacity:1" fill="#9d9f9e" d="M 40.5,445.5 C 70.8333,445.5 101.167,445.5 131.5,445.5C 131.829,458.344 131.495,471.011 130.5,483.5C 130.5,471.167 130.5,458.833 130.5,446.5C 100.329,446.831 70.3287,446.498 40.5,445.5 Z"/></g>
<g><path style="opacity:1" fill="#0b0e0b" d="M 713.5,459.5 C 721.177,459.681 723.177,463.181 719.5,470C 710.473,470.477 708.473,466.977 713.5,459.5 Z"/></g>
<g><path style="opacity:1" fill="#050a06" d="M 738.5,460.5 C 749.883,458.047 756.883,462.38 759.5,473.5C 757.718,484.903 751.051,489.737 739.5,488C 730.17,482.718 728.004,475.218 733,465.5C 734.812,463.7 736.645,462.033 738.5,460.5 Z"/></g>
<g><path style="opacity:1" fill="#030904" d="M 447.5,794.5 C 444.833,794.5 442.167,794.5 439.5,794.5C 439.5,783.5 439.5,772.5 439.5,761.5C 441.735,761.795 443.735,761.461 445.5,760.5C 571.956,748.723 667.79,688.723 733,580.5C 740.164,568.388 745.831,555.722 750,542.5C 714.639,578.195 678.972,613.528 643,648.5C 646.59,658.214 644.423,666.381 636.5,673C 621.022,679.427 611.355,674.427 607.5,658C 608.125,656.159 608.292,654.326 608,652.5C 595.167,665.333 582.333,678.167 569.5,691C 555.833,691.333 542.167,691.667 528.5,692C 523.652,697.015 518.652,701.848 513.5,706.5C 515.381,723.269 508.381,734.103 492.5,739C 475.557,740.229 465.89,732.395 463.5,715.5C 464.299,704.194 469.965,696.361 480.5,692C 487.189,691.622 493.856,691.622 500.5,692C 507.167,685.333 513.833,678.667 520.5,672C 534.167,671.667 547.833,671.333 561.5,671C 574.527,657.973 587.527,644.973 600.5,632C 610.167,631.667 619.833,631.333 629.5,631C 675.805,585.363 721.305,539.197 766,492.5C 768.345,481.918 770.178,471.252 771.5,460.5C 783.167,460.5 794.833,460.5 806.5,460.5C 797.051,536.039 767.551,602.373 718,659.5C 645.939,739.947 555.772,784.947 447.5,794.5 Z"/></g>
<g><path style="opacity:1" fill="#040a05" d="M 62.5,460.5 C 82.5424,460.705 92.0424,470.705 91,490.5C 86.1066,504.371 76.2733,510.538 61.5,509C 45.3141,502.139 40.1475,490.305 46,473.5C 49.9388,467.048 55.4388,462.714 62.5,460.5 Z"/></g>
<g><path style="opacity:1" fill="#070c08" d="M 153.5,516.5 C 165.703,515.868 171.203,521.534 170,533.5C 165.781,541.687 159.281,544.187 150.5,541C 141.739,531.506 142.739,523.339 153.5,516.5 Z"/></g>
<g><path style="opacity:1" fill="#797e7d" d="M 392.5,520.5 C 424.167,520.5 455.833,520.5 487.5,520.5C 487.829,534.01 487.496,547.344 486.5,560.5C 486.5,547.5 486.5,534.5 486.5,521.5C 454.996,521.832 423.662,521.498 392.5,520.5 Z"/></g>
<g><path style="opacity:1" fill="#adb1b0" d="M 511.5,499.5 C 512.167,513.5 512.833,527.5 513.5,541.5C 513.44,542.043 513.107,542.376 512.5,542.5C 511.501,528.182 511.167,513.849 511.5,499.5 Z"/></g>
<g><path style="opacity:1" fill="#040904" d="M 147.5,543.5 C 168.415,542.91 177.582,552.91 175,573.5C 170.398,583.084 162.731,588.417 152,589.5C 135.204,586.369 128.204,576.369 131,559.5C 134.438,551.893 139.938,546.56 147.5,543.5 Z"/></g>
<g><path style="opacity:1" fill="#7f8283" d="M 226.5,571.5 C 225.167,573.833 225.167,576.167 226.5,578.5C 226.44,579.043 226.107,579.376 225.5,579.5C 224.343,576.216 224.176,572.882 225,569.5C 225.717,570.044 226.217,570.711 226.5,571.5 Z"/></g>
<g><path style="opacity:1" fill="#ecedec" d="M 226.5,571.5 C 228.922,573.94 228.922,576.274 226.5,578.5C 225.167,576.167 225.167,573.833 226.5,571.5 Z"/></g>
<g><path style="opacity:1" fill="#f4f6f4" d="M 259.5,610.5 C 250.014,611.494 240.348,611.827 230.5,611.5C 235.176,605.991 240.342,600.991 246,596.5C 250.663,600.997 255.163,605.663 259.5,610.5 Z"/></g>
<g><path style="opacity:1" fill="#888d88" d="M 259.5,610.5 C 260.043,610.56 260.376,610.893 260.5,611.5C 250.341,612.823 240.341,612.823 230.5,611.5C 240.348,611.827 250.014,611.494 259.5,610.5 Z"/></g>
<g><path style="opacity:1" fill="#5f6364" d="M 289.5,634.5 C 268.167,634.5 246.833,634.5 225.5,634.5C 225.768,636.099 225.434,637.432 224.5,638.5C 224.5,636.833 224.5,635.167 224.5,633.5C 246.34,633.169 268.006,633.503 289.5,634.5 Z"/></g>
<g><path style="opacity:1" fill="#fafbfb" d="M 343.5,660.5 C 344.159,690.852 343.492,720.852 341.5,750.5C 328.989,746.243 316.989,740.91 305.5,734.5C 304.334,714.175 304.167,693.842 305,673.5C 310.806,666.36 317.306,659.86 324.5,654C 330.796,655.999 337.13,658.165 343.5,660.5 Z"/></g>
<g><path style="opacity:1" fill="#070d0a" d="M 237.5,661.5 C 245.147,661.313 248.314,664.98 247,672.5C 242.667,676.5 238.333,676.5 234,672.5C 232.663,667.872 233.83,664.205 237.5,661.5 Z"/></g>
<g><path style="opacity:1" fill="#d4d8d6" d="M 436.5,672.5 C 433.713,673.477 430.713,673.81 427.5,673.5C 428.159,702.519 427.492,731.186 425.5,759.5C 426.491,730.574 426.825,701.574 426.5,672.5C 429.833,672.5 433.167,672.5 436.5,672.5 Z"/></g>
<g><path style="opacity:1" fill="#080d09" d="M 582.5,689.5 C 589.272,688.636 594.105,691.303 597,697.5C 597.5,707.667 592.667,712.5 582.5,712C 575.868,708.903 573.701,703.736 576,696.5C 577.018,692.985 579.185,690.652 582.5,689.5 Z"/></g>
<g><path style="opacity:1" fill="#080d09" d="M 549.5,699.5 C 563.273,700.065 567.773,706.731 563,719.5C 554.351,727.023 547.018,726.023 541,716.5C 539.085,708.33 541.918,702.663 549.5,699.5 Z"/></g>
<g><path style="opacity:1" fill="#b9bebc" d="M 343.5,660.5 C 344.498,690.662 344.831,720.995 344.5,751.5C 343.209,751.737 342.209,751.404 341.5,750.5C 343.492,720.852 344.159,690.852 343.5,660.5 Z"/></g>
<g><path style="opacity:1" fill="#797a7a" d="M 445.5,760.5 C 443.735,761.461 441.735,761.795 439.5,761.5C 439.5,772.5 439.5,783.5 439.5,794.5C 442.167,794.5 444.833,794.5 447.5,794.5C 444.713,795.477 441.713,795.81 438.5,795.5C 438.5,783.833 438.5,772.167 438.5,760.5C 440.833,760.5 443.167,760.5 445.5,760.5 Z"/></g>
</svg>
